{
  "accessors": [
    {
      "bufferView": 3,
      "componentType": 5126,
      "count": 17,
      "max": [
        2.4207639694213867,
        4.3270740509033203,
        1.6752943992614746
      ],
      "min": [
        1.373070240020752,
        2.2334203720092773,
        -2.5334882736206055
      ],
      "type": "VEC3"
    },
    {
      "bufferView": 3,
      "byteOffset": 204,
      "componentType": 5126,
      "count": 17,
      "max": [
        0.97228246927261353,
        0.56142932176589966,
        0.60793310403823853
      ],
      "min": [
        0.58559590578079224,
        0.10050321370363235,
        -0.68985050916671753
      ],
      "type": "VEC3"
    },
    {
      "bufferView": 4,
      "componentType": 5126,
      "count": 17,
      "max": [
        0.28667378425598145,
        0.025511505082249641,
        -0.91011947393417358,
        1
      ],
      "min": [
        -0.41434586048126221,
        -0.0069040539674460888,
        -0.99812489748001099,
        1
      ],
      "type": "VEC4"
    },
    {
      "bufferView": 4,
      "byteOffset": 272,
      "componentType": 5126,
      "count": 17,
      "max": [
        1,
        1,
        1,
        1
      ],
      "min": [
        1,
        1,
        1,
        1
      ],
      "type": "VEC4"
    },
    {
      "bufferView": 2,
      "componentType": 5126,
      "count": 17,
      "max": [
        0.3309141993522644,
        0.17430970072746277
      ],
      "min": [
        0.027506757527589798,
        0.024145141243934631
      ],
      "type": "VEC2"
    },
    {
      "bufferView": 1,
      "componentType": 5125,
      "count": 63,
      "max": [
        16
      ],
      "min": [
        0
      ],
      "type": "SCALAR"
    },
    {
      "bufferView": 3,
      "byteOffset": 408,
      "componentType": 5126,
      "count": 3579,
      "max": [
        2.5383980274200439,
        5.3194589614868164,
        5.9157924652099609
      ],
      "min": [
        -2.5383980274200439,
        0.046720564365386963,
        -15.604676246643066
      ],
      "type": "VEC3"
    },
    {
      "bufferView": 3,
      "byteOffset": 43356,
      "componentType": 5126,
      "count": 3579,
      "max": [
        0.99999469518661499,
        0.99870187044143677,
        0.99999856948852539
      ],
      "min": [
        -0.99999469518661499,
        -0.9998023509979248,
        -0.99737751483917236
      ],
      "type": "VEC3"
    },
    {
      "bufferView": 4,
      "byteOffset": 544,
      "componentType": 5126,
      "count": 3579,
      "max": [
        0.99975299835205078,
        0.99999016523361206,
        0.99979758262634277,
        1
      ],
      "min": [
        -0.99975299835205078,
        -0.99939960241317749,
        -0.99997049570083618,
        -1
      ],
      "type": "VEC4"
    },
    {
      "bufferView": 4,
      "byteOffset": 57808,
      "componentType": 5126,
      "count": 3579,
      "max": [
        1,
        1,
        1,
        1
      ],
      "min": [
        1,
        1,
        1,
        1
      ],
      "type": "VEC4"
    },
    {
      "bufferView": 2,
      "byteOffset": 136,
      "componentType": 5126,
      "count": 3579,
      "max": [
        0.98832541704177856,
        0.99005120992660522
      ],
      "min": [
        0.011317631229758263,
        0.019065037369728088
      ],
      "type": "VEC2"
    },
    {
      "bufferView": 1,
      "byteOffset": 252,
      "componentType": 5125,
      "count": 17202,
      "max": [
        3578
      ],
      "min": [
        0
      ],
      "type": "SCALAR"
    },
    {
      "bufferView": 5,
      "componentType": 5126,
      "count": 23,
      "max": [
        1,
        0.059230845421552658,
        0.19917312264442444,
        0,
        0.15471288561820984,
        1,
        0.19900386035442352,
        0,
        0.12673619389533997,
        0.1990039050579071,
        1,
        0,
        0.54802459478378296,
        0.74620473384857178,
        0.71087610721588135,
        1
      ],
      "min": [
        -0.20000000298023224,
        -0.05923086404800415,
        -0.19917312264442444,
        0,
        -0.15471288561820984,
        -0.12612238526344299,
        -0.19999849796295166,
        0,
        -0.12673619389533997,
        -0.19999846816062927,
        -0.1046469584107399,
        0,
        -0.54802483320236206,
        -2.3626158237457275,
        -0.75346368551254272,
        1
      ],
      "type": "MAT4"
    },
    {
      "bufferView": 0,
      "componentType": 5123,
      "count": 17,
      "max": [
        12,
        14,
        17,
        12
      ],
      "min": [
        1,
        1,
        1,
        12
      ],
      "type": "VEC4"
    },
    {
      "bufferView": 4,
      "byteOffset": 115072,
      "componentType": 5126,
      "count": 17,
      "max": [
        0.9574010968208313,
        0.49731650948524475,
        0.19999916851520538,
        0
      ],
      "min": [
        0.49999997019767761,
        0.04259885847568512,
        0,
        0
      ],
      "type": "VEC4"
    },
    {
      "bufferView": 0,
      "byteOffset": 136,
      "componentType": 5123,
      "count": 3579,
      "max": [
        22,
        21,
        21,
        21
      ],
      "min": [
        1,
        1,
        1,
        12
      ],
      "type": "VEC4"
    },
    {
      "bufferView": 4,
      "byteOffset": 115344,
      "componentType": 5126,
      "count": 3579,
      "max": [
        1,
        0.5,
        0.30869370698928833,
        0.051677465438842773
      ],
      "min": [
        0.38219344615936279,
        0,
        0,
        0
      ],
      "type": "VEC4"
    }
  ],
  "asset": {
    "extras": {
      "author": "megaudon (https://sketchfab.com/megaudon)",
      "license": "CC-BY-4.0 (http://creativecommons.org/licenses/by/4.0/)",
      "source": "https://sketchfab.com/3d-models/29ed8275e7c24d158faf7c751baaa9c0",
      "title": "ハツカネズミ"
    },
    "generator": "Sketchfab-4.64.0",
    "version": "2.0"
  },
  "bufferViews": [
    {
      "buffer": 0,
      "byteLength": 28768,
      "byteOffset": 0,
      "byteStride": 8,
      "name": "shortBufferViews",
      "target": 34962
    },
    {
      "buffer": 0,
      "byteLength": 69060,
      "byteOffset": 28768,
      "name": "floatBufferViews",
      "target": 34963
    },
    {
      "buffer": 0,
      "byteLength": 28768,
      "byteOffset": 97828,
      "byteStride": 8,
      "name": "floatBufferViews",
      "target": 34962
    },
    {
      "buffer": 0,
      "byteLength": 86304,
      "byteOffset": 126596,
      "byteStride": 12,
      "name": "floatBufferViews",
      "target": 34962
    },
    {
      "buffer": 0,
      "byteLength": 172608,
      "byteOffset": 212900,
      "byteStride": 16,
      "name": "floatBufferViews",
      "target": 34962
    },
    {
      "buffer": 0,
      "byteLength": 1472,
      "byteOffset": 385508,
      "byteStride": 64,
      "name": "floatBufferViews"
    }
  ],
  "buffers": [
    {
      "byteLength": 386980,
      "uri": "scene.bin"
    }
  ],
  "images": [
    {
      "uri": "textures/Body_baseColor.png"
    }
  ],
  "materials": [
    {
      "alphaCutoff": 0.29999999999999999,
      "alphaMode": "MASK",
      "doubleSided": true,
      "name": "Body",
      "pbrMetallicRoughness": {
        "baseColorFactor": [
          1,
          1,
          1,
          1
        ],
        "baseColorTexture": {
          "index": 0,
          "texCoord": 0
        },
        "metallicFactor": 0,
        "roughnessFactor": 0.82394172570000002
      }
    }
  ],
  "meshes": [
    {
      "name": "Squirrel_Body_0",
      "primitives": [
        {
          "attributes": {
            "COLOR_0": 3,
            "JOINTS_0": 13,
            "NORMAL": 1,
            "POSITION": 0,
            "TANGENT": 2,
            "TEXCOORD_0": 4,
            "WEIGHTS_0": 14
          },
          "indices": 5,
          "material": 0,
          "mode": 4
        }
      ]
    },
    {
      "name": "0",
      "primitives": [
        {
          "attributes": {
            "COLOR_0": 9,
            "JOINTS_0": 15,
            "NORMAL": 7,
            "POSITION": 6,
            "TANGENT": 8,
            "TEXCOORD_0": 10,
            "WEIGHTS_0": 16
          },
          "indices": 11,
          "material": 0,
          "mode": 4
        }
      ]
    }
  ],
  "nodes": [
    {
      "children": [
        1
      ],
      "name": "RootNode (gltf orientation matrix)",
      "rotation": [
        -0.70710678118654746,
        -0,
        -0,
        0.70710678118654757
      ]
    },
    {
      "children": [
        2
      ],
      "name": "RootNode (model correction matrix)"
    },
    {
      "children": [
        3
      ],
      "matrix": [
        1,
        0,
        0,
        0,
        0,
        0,
        1,
        0,
        0,
        -1,
        0,
        0,
        0,
        0,
        0,
        1
      ],
      "name": "Mouse.fbx"
    },
    {
      "children": [
        4
      ],
      "name": "RootNode"
    },
    {
      "children": [
        5
      ],
      "matrix": [
        5,
        1.1097020993625955e-15,
        -1.1442475440229737e-15,
        0,
        1.1442474477738979e-15,
        -4.9976515101234584,
        0.15322983834984041,
        0,
        -1.1097021986079329e-15,
        -0.15322983834984041,
        -4.9976515101234584,
        0,
        0,
        0,
        0,
        1
      ],
      "name": "Armature"
    },
    {
      "children": [
        6,
        30,
        32,
        29,
        31
      ],
      "name": ""
    },
    {
      "children": [
        7,
        17
      ],
      "name": "_rootJoint"
    },
    {
      "children": [
        8,
        11,
        14
      ],
      "name": "Hips_00",
      "rotation": [
        0.50156152248382568,
        -1.0313055298638574e-07,
        -5.9790792761305056e-08,
        0.86512202024459839
      ],
      "scale": [
        1,
        0.99999994039535522,
        0.99999994039535522
      ],
      "translation": [
        2.9815602094998735e-16,
        -0.60572117567062378,
        0.4584771990776062
      ]
    },
    {
      "children": [
        9
      ],
      "name": "Tail_01",
      "rotation": [
        -1.139679906003721e-08,
        0.97876352071762085,
        0.20499271154403687,
        -3.2311456266143068e-07
      ],
      "scale": [
        1,
        1.0000001192092896,
        1
      ],
      "translation": [
        8.3224964697592441e-09,
        0.69799435138702393,
        0.034907013177871704
      ]
    },
    {
      "children": [
        10
      ],
      "name": "Tail.001_02",
      "rotation": [
        -0.070753142237663269,
        -5.5457921588342174e-10,
        -2.7432346172417965e-08,
        0.99749386310577393
      ],
      "translation": [
        -6.4392935428259079e-15,
        0.63610285520553589,
        -1.4901161193847656e-08
      ]
    },
    {
      "name": "Tail.002_03",
      "rotation": [
        -0.06472458690404892,
        2.3833206519441319e-09,
        -2.7404450264612024e-08,
        0.99790316820144653
      ],
      "scale": [
        1,
        1,
        0.99999988079071045
      ],
      "translation": [
        -1.3766765505351941e-14,
        0.6408543586730957,
        7.4505797087454084e-09
      ]
    },
    {
      "children": [
        12
      ],
      "name": "Leg_L_04",
      "rotation": [
        3.4793498571161763e-07,
        -0.3899950385093689,
        0.92081707715988159,
        -6.4089064721883915e-08
      ],
      "scale": [
        1,
        0.99999958276748657,
        0.99999946355819702
      ],
      "translation": [
        0.46689388155937195,
        0.2374674379825592,
        -0.16734261810779572
      ]
    },
    {
      "children": [
        13
      ],
      "name": "Knee_L_05",
      "rotation": [
        -0.029311014339327812,
        -0.35438701510429382,
        0.92264860868453979,
        -0.14923292398452759
      ],
      "scale": [
        0.99999988079071045,
        0.99999958276748657,
        0.9999995231628418
      ],
      "translation": [
        -2.2727835613522984e-08,
        0.14487123489379883,
        -3.6953053950128378e-09
      ]
    },
    {
      "name": "Foot_L_06",
      "rotation": [
        0.89539909362792969,
        -0.14679785072803497,
        0.039748948067426682,
        -0.41848641633987427
      ],
      "scale": [
        1,
        0.99999994039535522,
        0.99999982118606567
      ],
      "translation": [
        -2.514570951461792e-08,
        0.36089411377906799,
        5.029141902923584e-08
      ]
    },
    {
      "children": [
        15
      ],
      "name": "Leg_R_07",
      "rotation": [
        -6.9461676410753626e-09,
        -0.38999512791633606,
        0.92081689834594727,
        7.9048206202969595e-08
      ],
      "scale": [
        1,
        1,
        1.0000001192092896
      ],
      "translation": [
        -0.46689394116401672,
        0.23746742308139801,
        -0.167342409491539
      ]
    },
    {
      "children": [
        16
      ],
      "name": "Knee_R_08",
      "rotation": [
        0.029311716556549072,
        -0.35438743233680725,
        0.92264842987060547,
        0.14923283457756042
      ],
      "scale": [
        1,
        1,
        0.99999994039535522
      ],
      "translation": [
        2.550184063920824e-08,
        0.1448712944984436,
        -5.2032333996976377e-09
      ]
    },
    {
      "name": "Foot_R_09",
      "rotation": [
        0.89539903402328491,
        0.14679783582687378,
        -0.039748907089233398,
        -0.41848653554916382
      ],
      "scale": [
        1,
        0.99999982118606567,
        0.99999970197677612
      ],
      "translation": [
        2.9802322387695312e-08,
        0.36089381575584412,
        -4.6566128730773926e-08
      ]
    },
    {
      "children": [
        18
      ],
      "name": "Spine_010",
      "rotation": [
        -2.300305084190768e-07,
        -0.68222373723983765,
        0.73114347457885742,
        2.1471053912591742e-07
      ],
      "scale": [
        1,
        0.9999997615814209,
        0.99999994039535522
      ],
      "translation": [
        2.9815602094998735e-16,
        -0.60572117567062378,
        0.4584771990776062
      ]
    },
    {
      "children": [
        19,
        21,
        25
      ],
      "name": "Chest_011",
      "rotation": [
        3.785160984648428e-08,
        0.99270379543304443,
        -0.12057860940694809,
        3.1162608138401993e-07
      ],
      "scale": [
        1,
        0.99999988079071045,
        1.0000001192092896
      ],
      "translation": [
        1.4660895178539475e-14,
        0.4762234091758728,
        3.119930624961853e-08
      ]
    },
    {
      "children": [
        20
      ],
      "name": "Neck_012",
      "rotation": [
        0.020020443946123123,
        1.1918542242028707e-07,
        2.3866151277474046e-09,
        0.99979954957962036
      ],
      "translation": [
        -2.1175823681357508e-22,
        0.38766953349113464,
        6.7055225372314453e-08
      ]
    },
    {
      "name": "Head_013",
      "rotation": [
        0.12995307147502899,
        -4.8102018516352901e-15,
        3.0983233756387563e-08,
        0.99152016639709473
      ],
      "translation": [
        -1.5728889375579268e-15,
        0.07772364467382431,
        5.2154064178466797e-08
      ]
    },
    {
      "children": [
        22
      ],
      "name": "Shoulder_L_014",
      "rotation": [
        0.52746307849884033,
        0.36983504891395569,
        -0.52639734745025635,
        0.55489695072174072
      ],
      "scale": [
        1,
        1.0000001192092896,
        1
      ],
      "translation": [
        0.18803775310516357,
        0.13446199893951416,
        0.30870482325553894
      ]
    },
    {
      "children": [
        23
      ],
      "name": "Arm_L_015",
      "rotation": [
        -0.65394794940948486,
        0.33603847026824951,
        0.15767408907413483,
        0.65921866893768311
      ],
      "scale": [
        1,
        1,
        0.99999982118606567
      ],
      "translation": [
        -0.0005162595771253109,
        0.10534930974245071,
        -0.0036343827378004789
      ]
    },
    {
      "children": [
        24
      ],
      "name": "Elbow_L_016",
      "rotation": [
        -0.22820273041725159,
        -0.68933737277984619,
        -0.16801460087299347,
        0.66671478748321533
      ],
      "scale": [
        1,
        0.99999988079071045,
        0.99999988079071045
      ],
      "translation": [
        -5.5879354476928711e-09,
        0.26132217049598694,
        1.3038516044616699e-08
      ]
    },
    {
      "name": "Hand_L_017",
      "rotation": [
        -0.0051556765101850033,
        -1.8606987950420262e-08,
        -5.0504800341855116e-09,
        0.99998670816421509
      ],
      "translation": [
        4.8639385852311534e-08,
        0.28068676590919495,
        7.513765609701295e-09
      ]
    },
    {
      "children": [
        26
      ],
      "name": "Shoulder_R_018",
      "rotation": [
        0.52746307849884033,
        -0.36983504891395569,
        0.52639734745025635,
        0.55489695072174072
      ],
      "scale": [
        1,
        1.0000001192092896,
        1
      ],
      "translation": [
        -0.18803775310516357,
        0.13446199893951416,
        0.30870482325553894
      ]
    },
    {
      "children": [
        27
      ],
      "name": "Arm_R_019",
      "rotation": [
        -0.65394794940948486,
        -0.33603847026824951,
        -0.15767408907413483,
        0.65921866893768311
      ],
      "scale": [
        1,
        1,
        0.99999982118606567
      ],
      "translation": [
        0.0005162595771253109,
        0.10534930974245071,
        -0.0036343827378004789
      ]
    },
    {
      "children": [
        28
      ],
      "name": "Elbow_R_020",
      "rotation": [
        -0.22820273041725159,
        0.68933737277984619,
        0.16801460087299347,
        0.66671478748321533
      ],
      "scale": [
        1,
        0.99999988079071045,
        0.99999988079071045
      ],
      "translation": [
        5.5879354476928711e-09,
        0.26132217049598694,
        1.3038516044616699e-08
      ]
    },
    {
      "name": "Hand_R_021",
      "rotation": [
        -0.0051556765101850033,
        1.8606987950420262e-08,
        5.0504800341855116e-09,
        0.99998670816421509
      ],
      "translation": [
        -4.8639385852311534e-08,
        0.28068676590919495,
        7.513765609701295e-09
      ]
    },
    {
      "matrix": [
        1.9045604765416275,
        -8.7986616775136356e-16,
        -1.7440457088360513e-15,
        0,
        -2.8053712424085807e-15,
        1.0318224429175951e-07,
        -3.0635660831792442,
        0,
        8.7986631132952123e-16,
        1.9045606601820215,
        6.4146435223437035e-08,
        0,
        -1.4277495164676134e-14,
        -2.5459242669612081e-07,
        6.0080433073039785e-08,
        1
      ],
      "name": ""
    },
    {
      "mesh": 0,
      "name": "",
      "skin": 0
    },
    {
      "matrix": [
        1.9045604765416275,
        -8.7986616775136356e-16,
        -1.7440457088360513e-15,
        0,
        -2.8053712424085807e-15,
        1.0318224429175951e-07,
        -3.0635660831792442,
        0,
        8.7986631132952123e-16,
        1.9045606601820215,
        6.4146435223437035e-08,
        0,
        -1.4277495164676134e-14,
        -2.5459242669612081e-07,
        6.0080433073039785e-08,
        1
      ],
      "name": ""
    },
    {
      "mesh": 1,
      "name": "",
      "skin": 0
    }
  ],
  "samplers": [
    {
      "magFilter": 9729,
      "minFilter": 9987,
      "wrapS": 10497,
      "wrapT": 10497
    }
  ],
  "scene": 0,
  "scenes": [
    {
      "name": "OSG_Scene",
      "nodes": [
        0
      ]
    }
  ],
  "skins": [
    {
      "inverseBindMatrices": 12,
      "joints": [
        6,
        7,
        8,
        9,
        10,
        11,
        12,
        13,
        14,
        15,
        16,
        17,
        18,
        19,
        20,
        21,
        22,
        23,
        24,
        25,
        26,
        27,
        28
      ],
      "skeleton": 6
    }
  ],
  "textures": [
    {
      "sampler": 0,
      "source": 0
    }
  ]
}

